<?xml version="1.0" encoding="UTF-8"?>
<svg id="_圖層_2" data-name="圖層 2" xmlns="http://www.w3.org/2000/svg" viewBox="0 0 166.1 145.81"><metadata><?xpacket begin="" id="W5M0MpCehiHzreSzNTczkc9d"?><x:xmpmeta xmlns:x="adobe:ns:meta/" x:xmptk="XMP Core 6.0.0"><rdf:RDF xmlns:rdf="http://www.w3.org/1999/02/22-rdf-syntax-ns#"><rdf:Description rdf:about="" xmlns:xmp="http://ns.adobe.com/xap/1.0/" xmlns:xmpMM="http://ns.adobe.com/xap/1.0/mm/" xmlns:dc="http://purl.org/dc/elements/1.1/" xmlns:dcterms="http://purl.org/dc/terms/" xmpMM:DocumentID="xmp.did:cb9f5498-bb58-4572-8043-8c369e6bfb9b" xmpMM:InstanceID="xmp.iid:cb9f5498-bb58-4572-8043-8c369e6bfb9b" dcterms:provenance="https://cai-manifests.adobe.com/manifests/urn-c2pa-2902ca7b-4ba7-4125-9b51-24636ebb80d4-adobe"> </rdf:Description></rdf:RDF></x:xmpmeta>
<?xpacket end="w"?></metadata>
  <defs>
    <style>
      .cls-1 {
        fill: #ece4cf;
      }

      .cls-2 {
        fill: #e4d7bc;
      }

      .cls-3 {
        fill: #cab08d;
      }

      .cls-4 {
        fill: #5e4834;
      }

      .cls-5 {
        fill: #b6a489;
      }

      .cls-6 {
        fill: #ceb18d;
      }

      .cls-7 {
        fill: #b89d7c;
      }

      .cls-8 {
        fill: #ebdcc2;
      }

      .cls-9 {
        fill: #d1b591;
      }

      .cls-10 {
        fill: #f0e2cb;
      }

      .cls-11 {
        fill: #b6a68c;
      }

      .cls-12 {
        fill: #907558;
      }

      .cls-13 {
        fill: #d2b793;
      }

      .cls-14 {
        fill: #ceb28b;
      }

      .cls-15 {
        fill: #ede3ce;
      }

      .cls-16 {
        fill: #d3b893;
      }

      .cls-17 {
        fill: #eae2d1;
      }

      .cls-18 {
        fill: #e8d6bb;
      }

      .cls-19 {
        fill: #e8dbc2;
      }

      .cls-20 {
        fill: #e1d6c0;
      }

      .cls-21 {
        fill: #e2d2b4;
      }

      .cls-22 {
        fill: #c0a685;
      }

      .cls-23 {
        fill: #b0a18b;
      }

      .cls-24 {
        fill: #836d58;
      }

      .cls-25 {
        fill: #e3d1b5;
      }

      .cls-26 {
        fill: #ebdbc3;
      }

      .cls-27 {
        fill: #eadac1;
      }

      .cls-28 {
        fill: #e4d5bb;
      }

      .cls-29 {
        fill: #beb099;
      }

      .cls-30 {
        fill: #b4a387;
      }

      .cls-31 {
        fill: #b9a88f;
      }

      .cls-32 {
        fill: #d1b491;
      }

      .cls-33 {
        fill: #bea382;
      }

      .cls-34 {
        fill: #ece0ca;
      }

      .cls-35 {
        fill: #d1b695;
      }

      .cls-36 {
        fill: #e7d8bf;
      }

      .cls-37 {
        fill: #caae8a;
      }

      .cls-38 {
        fill: #6d543e;
      }

      .cls-39 {
        fill: #594636;
      }

      .cls-40 {
        fill: #a08466;
      }

      .cls-41 {
        fill: #ccb797;
      }

      .cls-42 {
        fill: #644b37;
      }

      .cls-43 {
        fill: #5f4734;
      }

      .cls-44 {
        fill: #ece2cd;
      }

      .cls-45 {
        fill: #cfb18c;
      }

      .cls-46 {
        fill: #cab497;
      }

      .cls-47 {
        fill: #deceb2;
      }

      .cls-48 {
        fill: #e7d7be;
      }

      .cls-49 {
        fill: #b09372;
      }

      .cls-50 {
        fill: #cfb592;
      }

      .cls-51 {
        fill: #ccb18f;
      }

      .cls-52 {
        fill: #a88d73;
      }

      .cls-53 {
        fill: #b8a58c;
      }

      .cls-54 {
        fill: #a59279;
      }

      .cls-55 {
        fill: #574433;
      }

      .cls-56 {
        fill: #b1a391;
      }

      .cls-57 {
        fill: #c4b29c;
      }

      .cls-58 {
        fill: #c0ad92;
      }

      .cls-59 {
        fill: #d0b28c;
      }

      .cls-60 {
        fill: #a89172;
      }

      .cls-61 {
        fill: #ecdec5;
      }

      .cls-62 {
        fill: #ceb290;
      }

      .cls-63 {
        fill: #d0b692;
      }

      .cls-64 {
        fill: #ddcaac;
      }

      .cls-65 {
        fill: #e2d3b8;
      }

      .cls-66 {
        fill: #7f654f;
      }

      .cls-67 {
        fill: #c6ae8d;
      }

      .cls-68 {
        fill: #cab9a0;
      }

      .cls-69 {
        fill: #584333;
      }

      .cls-70 {
        fill: #eadbc4;
      }

      .cls-71 {
        fill: #d1b693;
      }

      .cls-72 {
        fill: #b2a48b;
      }

      .cls-73 {
        fill: #ccad84;
      }

      .cls-74 {
        fill: #7e644d;
      }

      .cls-75 {
        fill: #e2d5bc;
      }

      .cls-76 {
        fill: #887058;
      }

      .cls-77 {
        fill: #5a4533;
      }

      .cls-78 {
        fill: #d1b48e;
      }

      .cls-79 {
        fill: #e9dbc2;
      }

      .cls-80 {
        fill: #ede5d1;
      }

      .cls-81 {
        fill: #b09c82;
      }

      .cls-82 {
        fill: #7a624d;
      }

      .cls-83 {
        fill: #d2b58f;
      }

      .cls-84 {
        fill: #c2a784;
      }

      .cls-85 {
        fill: #b9a68b;
      }

      .cls-86 {
        fill: #bea583;
      }

      .cls-87 {
        fill: #e1d1b6;
      }

      .cls-88 {
        fill: #c5ab89;
      }

      .cls-89 {
        fill: #ede2cc;
      }

      .cls-90 {
        fill: #bead94;
      }

      .cls-91 {
        fill: #b8a68b;
      }

      .cls-92 {
        fill: #dbc8ae;
      }

      .cls-93 {
        fill: #cfb28e;
      }

      .cls-94 {
        fill: #ad9c84;
      }

      .cls-95 {
        fill: #998165;
      }

      .cls-96 {
        fill: #5e4a35;
      }

      .cls-97 {
        fill: #ceb28f;
      }

      .cls-98 {
        fill: #c6b294;
      }

      .cls-99 {
        fill: #b49f82;
      }

      .cls-100 {
        fill: #654a30;
      }

      .cls-101 {
        fill: #cbb793;
      }

      .cls-102 {
        fill: #cbab83;
      }

      .cls-103 {
        fill: #9c8468;
      }

      .cls-104 {
        fill: #523d2b;
      }

      .cls-105 {
        fill: #988168;
      }

      .cls-106 {
        fill: #c5ac8d;
      }

      .cls-107 {
        fill: #ceb595;
      }

      .cls-108 {
        fill: #715a44;
      }

      .cls-109 {
        fill: #745c47;
      }

      .cls-110 {
        fill: #e2d6bd;
      }

      .cls-111 {
        fill: #d8c5a7;
      }

      .cls-112 {
        fill: #e4d5b9;
      }

      .cls-113 {
        fill: #e8dac0;
      }

      .cls-114 {
        fill: #dac8ab;
      }

      .cls-115 {
        fill: #eddfc7;
      }

      .cls-116 {
        fill: #cfb38f;
      }

      .cls-117 {
        fill: #cfb594;
      }

      .cls-118 {
        fill: #d3b895;
      }

      .cls-119 {
        fill: #daceb4;
      }

      .cls-120 {
        fill: #e3d2b7;
      }

      .cls-121 {
        fill: #d7c4a8;
      }

      .cls-122 {
        fill: #7a604a;
      }

      .cls-123 {
        fill: #b2a186;
      }

      .cls-124 {
        fill: #978168;
      }
    </style>
  </defs>
  <g id="_生成式物件" data-name="生成式物件">
    <path class="cls-105" d="M123.12,55.39l-.83,1.32-2.06,2.99c.43.16.87.31,1.25.32.18-.11.42-.38.67-.37-.32.2-.28.72.05.72h.57c2.79.03,5.58.63,8.09,2.1,1.48.87,2.41,2.28,3.71,3.34l3.68,2.99c1.87,1.52,2.74,3.88,1.86,6.11-.23.05-.35-.04-.51-.21.66-1.92.17-4.01-1.48-5.3l-3.24-2.54-2.21-2.21c-1.05-1.05-2.11-1.91-3.61-2.44-2.21-.78-4.99-1.59-7.29-1.23-.76.87-1.71,2.2-3.12,1.83-3.26,2.91-6.93,4.89-11.15,6.11-.23,1.13-.59,2.28-1.67,2.81-.32.16-1.05.03-1.09.65.24.08.6-.03.74-.01-.33.52-1.74.19-2.22,1.37l3.8-.96,4.13-1.97c.04.15.09.25.11.27l-2.96,1.61c1.41.12,2.56-.36,3.85-.64,1.81-.39,3.75-.84,5.4-1.69-.04-.55.05-1.16.66-1.47.92-.47,2.32-.71,3.14.06.41.38.05,1.32-.17,1.68-.98.51-2.38.44-3.51-.02-.29.28-.17.49.19.63-1.52.89-3.14,1.48-4.76,2.15l-2.99.63.08.9c.08.86-1.31,2.75-2.59,2.21-.34-.15-.62-.33-.74-.96-3.41,1.24-7.83,1.28-11.39.46-.35-.08-.85-.02-1.23.29,3.6,2.15,10.51.02,11.15.29-.28.37-.68.33-1.21.51l3.34,1.06,3.38.52c1.03.16,2.09.33,3.16.14l.97-.68c1.32-.09,2.71.66,2.85,1.41.09.47-.05.91-.54,1.2-.71.43-1.59.37-2.28.12s-1.28-.64-1.15-1.73c-1.88.25-3.67-.05-5.47-.45l-1.74-.38c-2.34-.52-3.77-1.41-4.63-.69,3.76,1.48,7.45,1.91,11.53,2.27-2.7.52-5.36-.29-8.02-.75-1.23-.21-2.22-.94-3.72-.9,1.28.84,2.13,1.8,2.84,3l.37.64c.26,1.01.7,1.84,1.56,2.57.97-.53,2.17-.59,3.09,0,.67.71.64,1.21.02,2.02,2.6,1.29,4.97,2.4,6.9,4.35,1.43.56,2.9.49,4.38.63,3.26.32,6.43-.2,9.47-1.3,2.24-.81,3.83-2.03,5.37-3.86l2.39-2.84c1.13-1.34,2.77-3.38,2.19-4.7l-1.08-2.42c.17-.18.38-.15.53-.04.06.38.3.61.55.97.97,1.43.95,3.34-.22,4.72l-5.1,6.01c-.78.92-1.75,1.53-2.79,2.06-3.88,1.94-7.98,2.3-12.26,1.99l-2.57-.18c2.14,2.97,2.15,6.78-.15,9.42-2.11,2.42-4.6,4.45-7.76,5.29-4.27,1.12-8.78.81-12.9-.87-4.6-1.88-8.51-4.78-11.53-8.6-1.64-2.08-2.55-4.42-2.53-7.11-1.82,1.14-3.12.75-4.31,1.41,0-.45-.33-.48-.66-.48-.26,0-.69-.06-.74.33-.55-.76-2.32-.35-4.02-1.1-.7-.31-1.4-.59-2.07-.57-.01-.17-.12-.25-.3-.27-.14-.01-.29-.01-.4.07l-6.95-4.98c-3.59-2.58-5.64-6.43-6.08-10.82l-.66-3.98c-.41-2.49-.73-5.08.1-7.52s2.78-3.93,5.44-4.33c-2.34-2.42-3.96-4.91-4.74-7.94-.42-1.61-.73-3.31-.66-4.96l.28-6.7c.13-3.24,1.72-6.28,3.93-8.58.82-.85,1.78-1.07,2.76-1.5l2-1.91c3.51-2.36,6.54.95,11.15,1.79,5.52,1.01,9.04,7.65,10.66,13,.8-2.95,2.16-5.18,3.97-7.3,2.21-2.59,5.06-3.99,8.35-4.79l6.29-1.52c1.82-.44,3.69-.39,5.53.08,3.21.83,3.8,4.59,5.29,4.65,1.96.08,3.59.74,4.82,2.29,1.08,1.36,1.74,2.95,2,4.7l1.05,7.02c.4,2.66-.05,5.24-1.24,7.65l-.37,1.05ZM97.89,43.6l-2.32,3.86-1.11,2.29-1.25,2.73c.22.21.44.32.79.41l.72-1.96,1.19-2.81,2.47-4.37c.25.03.11-.27-.09-.23l-.41.09c-.63-1.1-.16-2.27.9-3.01.61-.42,1.6-.93,2.2-.26.57.64.21,1.42-.04,1.96-.32.7-1.14.86-1.91,1.06-2.03,3.01-3.67,6.31-4.72,9.82.25.38.3.88.31,1.22,0,.55-.77.7-1.05.93-.81,1.5-.84,3.15-1.31,4.66.63-.17.74-.51,1.24-.79-.3-.73.43-1.15.63-1.6,2.44-5.4,5.49-7.14,6.91-9.57.21-.37.9-.41,1.16-.25.36.23.54.71.45,1.21-.19,1.06-.84,2.14-1.84,2.23-.19-.09-.55-.48-.83-.46l-2.16,3.01-2.16,3.51c.95-2.54,2.35-4.66,4.09-6.57.12-.03.31-.04.37-.18.05-.11.05-.37-.03-.42-.5-.27-4.48,5-5.69,7.4.67-.04,1.14-.14,1.64.25.38.3.55.9.27,1.43-.5.99-1.67.62-2.36.8-1.31.93-2.21,2.45-2.95,4.03,1.26-.8,2.36-1.4,3.71-1.67.32-.41.85-.87,1.27-.91.74-.07,1.23.02,1.7.54l1.74-2.09c.89-1.07,1.88-1.96,2.65-3.05.81-1.16,1.97-2.33,2.5-3.61-.05-.92.17-2.03,1.42-2.12.66-.05,1.05.47,1.27,1.07.19.53-.05,1.1-.54,1.44-.56.39-1.27.37-1.94-.14l-2.37,3.8,2.48-2.94c0,.09.06.17.1.21l-3.28,4.44c-.59.8-1.26,1.15-1.18,2.22-.19-.36-.36-.33-.53-.05-.65.91-1.35,1.71-2.25,2.34.18-.77.82-1.07,1.24-1.62l2.9-3.78c-.06-.05-.09-.1-.1-.16l-4.08,4.29c-.1.98-.84,1.7-1.95,1.67-.1.2-.15.33-.14.4.01.25-.47.24-.19-.07-.07-.23-.33-.49-.63-.81-.62.19-1.24.55-1.75,1.35.56-.04.99-.08,1.41.28.27.23.43.67.16,1.46.17-.41.56-.18.4.13-1.2,2.28-3.72,3.28-5.58,6-.13.18-.14.38.05.52l-.72.2c-.2.43-.44.59-1.14.6.04.04.46.27.48.41.03.18-.12.5-.15.7-.16-.1-.4-.23-.62-.48-.09-.1-.54.14-.56.26l-.1.72c-.93,1.16-2.13,2.25-1.63,2.86.44.54,1.33,1.05,1.26,1.96-.29.03-.41-.25-.38-.57-.24-.21-.71-.09-.97.07-.58.35.29,2.69.41,4.61.26.23.91-.19.94-.55.46-.13,1.42-.32,1.71-.98.05-.11.3,0,.4-.12.06-.06,0-.2-.08-.33.26.01.66-.01.68-.15l.09-.53c.34-.2,1.08-.5.74-.92-.28-.35-.38-.64-.74-.63-.05-.36.36-.3.39-.04.88-.17.45-.54.67-1.22.08-.25-.4-.53-.44-.61.19-.27.19-.41.12-.56-.08-.18-.16-.3-.5-.36.04-.11.38-.2.33-.25l-.31-.39c-.1-.12-.11-.41-.03-.42.1-.02.34-.11.3-.18-.24-.31-.51-.14-.62-.14-.15,0-.06-.46.08-.54,1.5-.14,2.81-.89,4.15-1.73,2.25-1.4,3.88-3.49,4.53-6.15,0-.08-.32-.19-.36-.18,0-.1.11-.37.22-.39l.4-.06c-.02.76,1.64-.29,2.49-1.27l3.16-3.63c-.18-.38-.32-.51-.53-.62-.14-.57.06-.94.19-1.28.29-.75,1.12-.43,1.44-.74l5.17-4.69c-.16.14-.28.48-.52.7l-4.3,4.16c.76.3,1.14.79,1.08,1.32-.06.57-.57.89-1.22,1.02-.39-.05-1.07,0-.98.36.19.76-.56,1.49-.83,2.21-.16.18-.19.26-.11.45.07.15.19.08.26.06l.39-.11c2.6-1.74,4.64-3.99,6.9-6.1-1.96,3.08-4.96,5.3-8.11,7.13-.96.55-1.61,1.32-2.64,1.7,1.51-1.39,3.07-2.52,3.62-4.64-1.43,1.44-2.48,3.12-4.22,4.09-.94.53-1.41,1.22-1.1,2.28-.16-.12-.29-.2-.49-.08-.16.09-.16.26-.31.48l-2.1,3.23c2.22-.6,2.65-1.29,3.14-3.49.47.61-.04,1.2,0,1.62.52.11.39-.3.47-.36s.22.05.32.11c-1.61,2.01-4.17,2.43-5.89,4.14,1.06.26,1.97-.43,2.51-1.25.11.23.4.17.45.12.07-.07.29.01.21.13l-.43.61c2.05-.31,4.09-.99,6.15-1.98-.68-.47-1.26-.18-1.9-.29-.17.09-.47.07-.33-.31.04.05.1,0,.06-.08,2.56.96,4.7-.85,4.33-1.73-.1-.23-.27-.15-.48,0-.01-.2.08-.31.12-.48.1-.02.23-.22.54.04l.86-1.4-3.41.86c.04.43.1.74,0,.98l-.21.72c-.5.17-1.06.64-1.68.67-.15-.07-.1-.09-.13-.14-.1-.21-.29-.1-.33-.04-.14-.17-.22-.42-.45-.55.02-1.49,1.09-1.71.75-2.3,4.37-2.53,8.24-5.69,11.38-9.74-.71-.2-1.18-.53-1.27-.93-.17-.68.44-1.26,1.07-1.38s1.21-.22,1.74-.03c.42.15,1.17.88,1.01,1.41-.28.97-1.6.76-2.26.97-.87,1.4-2.11,2.71-3.29,3.83l-2.1,1.99c1.52-.13,3.14-.06,4.53-.49,2.13-1.46,4.57-3.88,7.35-3.34-3.72.98-6.36,2.97-8.89,5.97,3.14-1.14,6.02-2.88,8.65-4.61-.31-1.25,1.19-1.66,2.63-3.85,2.77-4.25,4.24-7.63,3.44-12.69l-.93-5.91c-.55-3.5-2.87-6.72-6.24-6.66-2.14.04-2.45-3.81-5.13-4.5-2.44-.64-4.94-.33-7.36.31l-4.11,1.09c-4.11.67-7.28,3-9.68,6.35-2.01,2.81-2.96,6.11-2.87,9.55l.73-1.23c-.28-1.4.5-2.92,1.88-3.41,1.22.61,1.23,2.02.52,2.94-.41,1.05-1.52,1.18-2.31.91-1.85,4.19-2.53,8.72-2.5,13.14.01,1.69-.05,3.22.43,4.78.3-.73.66-1.45.54-2.13-.82-4.67-.04-10.89,1.76-15.53.21,1.27-.73,2.47-.76,3.8-.04,2.18,1.13,4.28,1.98,6.16,1.8-1.23,1.22-2.56,2.78-2.6l1.49-3.25,2.06-3.92c.42-.8.9-1.56,1.63-2.01ZM60.79,44.2c-.41,1.91-.89,3.88-.77,5.97.17,3.02,1.47,5.8,3.31,8.18,5.37.16,8.94,1.99,12.12,6.14l5.37.66-.49-2.56c-.66-.88-1.16-2.13-.46-3.25.45-.73,1.58-.24,2.1.19-.12.12-.19.25-.18.36,0,.08,0,.21.26.23.09,0,.17-.04.11-.2-.09-.21-.16-.27-.18-.39l-.48-2.41-.56-4.41c-.14-1.15-.21-2.3.06-3.49-.35-.74-.62-1.64-.59-2.62.21-.46.5-.89.84-.94.56-.08,1.01.03,1.36.54.78,1.14.74,2.83-.56,3.44-.79.37.26,1.96-.12,3.26-.57-.59-.14-1.74-.52-3.08.46-.19-.04-.61-.33-.25.13,5.8,1.35,11.53,3.92,16.89.12.24-.09.44-.35.38-.98-2.11-1.68-4.29-2.46-6.55-.12.93-.21,1.65-.72,2.38l.75,1.92c.28.72,1.22,1.41.96,2.3l1.58,1.02c.01.14.5.32.58.18.34-.59.47-1.49.17-2.21-1.43-3.45-2.58-6.9-3.29-10.59-.06-.3-.09-.47,0-.72.29.26.26.49.36.89.83,3.45,1.85,6.73,3.24,9.93.28-.42.16-.88.3-1.15l.23-.45c.12-.24.01-.66-.46-.45-.02-.95-.53-1.75-.84-2.68-.8-2.35-.26-4.7.6-6.96l.93-4.29c1.17-5.41.51-9.76-2.65-14.35-3.25-4.71-5.09-5.38-10.57-6.89l-3.44-1.43c-1.68-.7-3.68-.44-4.82,1.1-.39.53-.76,1.04-1.36,1.4-3.15,1.91-4.76,6.45-3.51,9.42.77,1.83.96,3.65.56,5.51ZM100.31,42.12c.58-.2.59-.69.46-1.06-.1-.28-.46-.75-.84-.58-.94.41-1.72,1.24-1.89,2.41l2.26-.77ZM59.59,48.7l.92-6.37c-.05-1.51-.64-2.88-1.02-4.31-.63-2.4.29-4.46,1.3-6.79-2.35,1.85-2.98,4.67-3.33,7.43l-.11,3.65c-.05,1.72-.21,3.29.03,4.95.45,3.13,1.25,6.34,3.64,8.68-1.09-2.45-1.82-4.64-1.44-7.26ZM89.19,44.84c1.42-.22,2.01-1.95,1.41-3.02-.78.01-1.25.51-1.54,1-.3.51-.46,1.64.12,2.02ZM100.58,50.67c.85-.06,1.29-.62,1.48-1.1.22-.55.28-1.14-.2-1.72-.8.74-1.14,1.65-1.28,2.82ZM106.98,52.41c-.42-.7-1.1-.81-1.6-.54-.37.2-.58.95-.18,1.43.32.38.9.23,1.23.06.27-.14.73-.66.55-.96ZM82.21,48.91c.71-.96.36-2.2-.53-2.86-.35-.26-.99.42-.75.77.47.7.5,1.57,1.28,2.09ZM113.44,57.76c-.18-.51-.63-.9-1.18-.94-.43-.03-1.09.1-1.07.79-.11.05-.26.04-.43.04-.8,0,.68,1.44,2.68.11ZM118.89,62.33c1.31.14,2.19-.81,2.34-2.04-1.27-.54-2.86.92-2.92,1.41-.04.28.24.6.58.63ZM89.29,56.11c-.9-1.89-.93-3.6-1.62-5.02-.41,1.04-.49,1.93-.52,2.89-.06,2.13-.3,4.13.11,6.4.66-1.45,1.7-2.69,2.03-4.27ZM90.46,61.56c0,.11,0,.36-.29.46.14-1.38.31-2.75-.25-4.18-1.07,2.04-1.73,3.94-1.98,6.05-.17,1.41-.96,2.71-.67,4.41l1.04-1.16c-.31-.05-.36-.14-.46-.37-.05-.13.09-.23.29-.34.38-1.17-.35-1.87.64-1.47l1.43-2.48.71-.77c.42-.46.98-1.05,1.13-1.79l.97-4.88c.35-.15,1.08-.21,1.17-.92.06-.49-.64-.96-1.1-.95s-1.05.25-1.27.92c.24.3.71.72.62.99l-1.16,3.86-.23-.1,1.01-3.95c-.73.49-1.35,1.26-1.61,2.13l.29,1.72c.04.22.1.42.48.38l-.76,2.45ZM107.32,68.75c1.21-.75,2.67-1.01,4.02-1.6,2.47-1.09,4.74-2.44,6.76-4.28l-3.45,1.92-3.74,1.89c-1.41.47-2.65,1.11-4.21,1.36.09.26.21.34.61.71ZM86.82,66.75l1.43-5.63c.65-2.56,2-4.48,3.44-6.73-2.52,1.92-3.5,4.91-4.45,7.76-.87,2.61-1.21,5.18-.91,7.83l.49-3.22ZM105.68,60.95c.12-.63-.84-.96-1.3-.91-.36.04-1.06.32-.86.99s2.01.74,2.16-.09ZM95.94,58.96c.16-.82-.73-1.18-1.33-.9-.56.26-1.05.94-.39,1.42.4.29,1.63-.07,1.71-.52ZM103.88,62.9c.34-.25-.05-.58-.24-.22-.44.17,0,.65.24.22ZM106.03,67.91c1.01-.25,2.02-.65,2.64-1.66.13-.22.44-.12.52-.19.09-.08.05-.34.14-.35.39.04.7-.31.6-.63l-4.72.68c-1.41.51-2.38,1.76-3.66,2.5-.18.23-.01.54.3.7l4.19-1.05ZM120.44,69.83c.34.06.64-.04.71-.23.1-.28-.07-.5-.4-.58-.82-.2-1.6-.21-2.13.47l1.83.34ZM88.67,66.19c1.53-.85,2.01-2.18,2.65-3.45.55-1.09,1.28-1.89,2.05-2.91-1.44.74-2.37,2.03-3.12,3.39-.6.97-1.16,1.88-1.58,2.97ZM97.1,62.18c-.54-.36-1.73-.06-1.95.59-.16.48.38.76.74.7,1.13-.19,1.61-1.02,1.21-1.29ZM120.85,70.3c-.97-.44-1.91-.61-2.83-.36.74.92,1.88.89,2.83.36ZM86.98,73.21c.2.18-.12.8.54.86.07-.41.42-.59.56-.76l2.44-2.92c.6.33,1.1-1.47,2.55-2.28.68-.38,1.15-.92,1.76-1.46-.59-.16-.89.03-1.39.21l-1.29-1.46c-.69.44-1.12.95-1.49,1.6.73.12,1.3.34,1.71.73-.66.91-1.14,1.59-1.59,2.29-.57-.52-1.33-.61-2.1-.94,1.3-2.59,3.5-4.36,5.93-6.26-2.61.61-4.39,2.46-5.9,4.42-1.58,2.07-2.58,5.22-1.72,5.98ZM104.49,74.11l-1.73-.21c-.24.13-.15.27-.08.31.24.13.49.22.63.19-1.36.09-2.82.44-3.9,1.39l1.64.7s-.11.14-.2.19l-1.95-.72c-.44-.16-1.2.22-1.62.63,3.25.56,6.42,0,9.61-.61l.95-1.63c-1.58.17-2.95.22-4.53.04l1.18-.3c1.96.24,3.86-.19,5.79-.61,2.43-.53,4.86-.95,6.98-2.41-3.88,1.1-7.6,1.94-11.54,2.5-.5.07-1.13.14-1.23.52ZM80.79,62.06c.75-.04.86-1.08.82-1.6-.05-.6-.46-.96-.88-.88-.49.09-.67.46-.71.98-.04.48.09,1.54.77,1.5ZM106.52,68.81c-.83-.42-2.08,1.97-1.3,2.39.97.51,2.26-1.86,1.3-2.39ZM93.75,66.32c.42-.05.56-.31.61-.44.05-.14-.02-.41-.29-.53-.41-.18-.94-.18-1.39.05.18.47.71.96,1.08.92ZM101.75,69.81c.06-.34-.16-.73-.48-.68-.77.11-1.72.87-1.44,1.7.14.42.99.34,1.24.14.29-.23.56-.53.67-1.16ZM83.81,69.95c-.36.18-.69-.17-.88-.54l-1.74-3.31c-1.65-.43-3.26-.61-5.08-.63,1.36,3.56,4.23,5.7,7.73,6.36.4.08.88.12,1.4.35s.86-.49.92-.93c.02-.18.02-.28-.16-.35-.08-.03-.2-.02-.26.02-1.27-1.25-2.67-2.59-3.27-4.34l-1.38-4.07c-.51.51-.21,1.13-.06,1.66.57,1.94,1.46,3.68,2.38,5.33.33-.29.58-.06.55.02l-.15.44ZM101.09,74.35c1.63-.68,3.69-2.41,3.61-2.71-.28-.99-1.79,1.73-4.48,2.35-3.22,1.17-6.56,1.73-9.95,2.16-.15-.21-.4-.13-.47-.04-.06.08-.05.32.16.39,3.52.42,7.71-.73,11.13-2.14ZM86.24,75.17c-.32-2.89-2.08-2.59-5.01-3.48-2.61-.79-4.24-3.12-5.61-5.59-2.88-5.23-8.38-7.74-14.23-6.96-1.42.19-2.8.86-3.32,2.47-.64,1.95.19,4.19,1.58,5.7s2.25,3.5,1.88,5.62c-.31,1.79.66,3.31,2.09,4.33s2.81,2.3,3.35,4c.32,1.02.85,1.74,1.43,2.62,1.9,2.87,4.37,5.27,7.72,6.49,1.46.53,3.26.77,4.72.37,2.22-.61,3.51-2.75,3.81-4.96.5-3.75-2.49-7.13,1.56-10.33.16.03.21-.22.02-.27ZM109.57,74.21c-.62-.39-2.36,1.07-1.85,2.51,1.48.32,2.41-2.16,1.85-2.51ZM114.76,80.64c.52.61,2.44.85,2.61-.12.16-.92-1.56-1.56-2.13-1.13.09.32.16.46-.07.64-.24-.18-.56-.08-.62.03-.07.13,0,.35.2.59ZM84.42,68.68c-.08.16.05.4.14.38.12-.03.18-.19.18-.27,0-.15-.23-.29-.32-.11ZM103.11,80.71l-2.26-1.93,1.06-.13c-.23-.17-.57-.34-.81-.32-1.83.08-3.5-.04-5.6-.07,2.56,3.5,6.14,5.73,10.1,7.21.02-.61-.47-.9-.65-1.33-.49-1.16-.81-2.55-1.84-3.43ZM66.41,81.22c-1.47-3.79-5.91-3.86-5.31-8.07.66-4.58-3.09-5.41-3.86-9.5-.8,1.38-.83,2.72-.58,4.11l.96,5.36c.42,4.44,2.32,8.57,5.98,11.19l5.4,3.86c1.96,1.4,4.08,2.39,6.37,2.57-3.93-1.72-7.53-5.8-8.97-9.51ZM90.82,99.33l4.28,2.3c3.91,2.1,7.32-.33,10.06,1.01,3.37,1.65,4.5,2.72,8.11.72,1.13-.63,2.49-.96,3.38-1.72,2.01-1.72,2.39-4.19,1.54-6.59-.78-2.2-2.39-3.94-4.44-5.05l-5.32-2.86c-.94.23-2.05-.06-2.28-1.14-3.3-.89-6.28-2.55-8.79-5.01l-2.59-2.54c-.43-.42-.93-.54-1.22-1.15-.07-.15-.26-.36-.42-.4-.17-.04-.28.33-.18.35.18.03.56.27.48.51-.04.11-.14.5.31.18.74,1.42,1.97,2.48,3.11,3.63,2.86,2.88,5.34,3.57,9.09,4.97-2.4-.16-4.75-1.39-6.98-2.78-.03.59-.34.91-.72,1.1-1.8.88-5.86-2.51-7.42-4.97-.46,3.83-3.71,3.85-5.45,5.88-.47,1.43-.53,2.97-1.79,4-.52,1.88.08,3.79,1.55,5.23,1.56,1.83,3.52,3.17,5.69,4.34ZM97.06,82.26c-1.93-1.49-3.27-3.1-4.65-4.96-.15-.15-.72-.21-1.12-.01,1.05,2.15,2.42,4.04,4.28,5.61.44-.56.92-.59,1.49-.64ZM95.32,83.75c.2.13.41-.45.24-.47-1.14-.15-3.94-3.9-4.65-5.98-.33.31-.29.23-.73.01.83,2.58,2.73,4.83,5.15,6.44ZM109.64,86.02c.06-.74-1-.97-1.51-.89-.45.07-1.38.2-1.39.87s1.04.91,1.53.92c.43.01,1.31-.15,1.37-.9ZM98.29,83.8c-.08-.82-1.88-1.35-2.26-.6-.3.6.57,1.1,1.02,1.12.36.01,1.28.09,1.24-.52ZM90.17,99.79c-2.06-1.14-3.74-2.52-5.32-4.22.38,1.35,1.4,1.98,2,3.08,6.07,6.18,14.64,10.3,23.15,7.76,2.24-.66,4.21-2.15,5.95-3.82-1.12.22-1.69,1.09-2.84,1.17-1.6,1.55-4.21,1.63-6.14.41-2.12-1.34-4.15-1.6-6.54-1.13-2.55.5-4.91-.3-7.12-1.51l-3.14-1.73Z"/>
    <path class="cls-24" d="M55.24,105.46l-2.74,2.63c-1.16,1.11-3.68.97-3.39,3.96l-2.09.3c-.3-.34-.72-.37-1.09-.49-2.42-.76-7.12.76-9.91,2.21l-4.24,2.21-2.19,1.1c-.14-.22-.33-.39-.5-.38-.21,0-.43.16-.64.24l-4.39,1.61c-2.91,1.07-5.45,2.66-7.99,4.4l-2.22,1.52c-.96.66-1.88,1.21-2.83,1.91l-3.16,2.35c-.51.38-1.25.57-1.6,1.01-.87,1.07-2.57,1.93-3.42,1.42.09-1.85,1.21-4.87,2-5.78-.06.16,0,.23.11.27.14.05.22.04.38-.04l5.82-2.55,6.69-3.2,3.46-2.4,2.87-2.52c-.12.24-.13.57.04.83.14.22.3.64.83.4l-.88-1.23c.67-.59,3.14.28,5.41-.65l2.55-1.05,4.24-1.92,7.93-3.81,7.52-4.33c1.03-.6,2.01-1.26,3-1.9l5.01-3.23c.89-.57,1.92-1.02,2.73-1.77.19-.18.83-.03.97-.26-.07.23.14.33.19.47.12.33-.32.63-.5.78l-6.06,4.82c-1.12.89-2.58,2.69-1.92,3.09ZM47.86,111.44s.1,0,.17-.07c.15-.44.38-.88.4-1.37-.02,0-.1,0-.17.07-.15.44-.38.88-.4,1.37ZM25.34,117.59c1.12-.06,1.59-.89,1.66-1.88l-1.66,1.88Z"/>
    <path class="cls-77" d="M78.38,92.01c-6.43,3.6-12.74,7.37-18.88,11.64-2.08,1.45-4.08,2.66-5.82,4.42,1.26.28,2.58.26,3.36,1.09.28.46-.58,1.29-1.03,1.44-1.79,1.63-4.05,2.28-6.41,2.04-.64.48-1.39.53-2.15.57-1.57.07-3.02.33-4.58.92-6.18,2.35-12.21,4.88-17.97,8.19l-19.6,11.25c-.63.36-1,.35-1.61.09l.72-.53c.92-.6,1.9-.97,2.78-1.69l2.68-1.47,3.24-1.87c1.62-.93,3.19-1.81,4.83-2.74l5.78-3.29,2.01-1.15,2.07-1.1,4.62-2.15,4.66-2.1,5.91-2.36c.79-.32,1.47-.44,2.3-.57l1.73-.28,2.09-.3c-.28-2.98,2.24-2.84,3.39-3.96l2.74-2.63,4.38-2.9,1.23-.68,2.04-1.56,2.47-1.55c.82-.51,1.7-1.08,2.45-1.63-.29-.11-.95.7-1.02-.15l-1.96,1.37,1.88-2.11.73-.93-.45-.19-.21-.54c-.06-.16,0-.54-.34-.62-.2-.04-2.54,1.15-2.89,2.33-.14.23-.77.09-.97.26-.81.74-1.84,1.19-2.73,1.77l-5.01,3.23c-1,.64-1.97,1.3-3,1.9l-7.52,4.33-7.93,3.81-4.24,1.92-2.55,1.05c-2.27.94-4.74.07-5.41.65l-2.87,2.52-3.46,2.4-6.69,3.2-5.82,2.55c-.17.07-.24.09-.38.04-.1-.03-.17-.11-.11-.27.72-.83,2.04-1.31,3.09-1.79l5.52-2.48c3.44-1.54,6.72-3.41,9.36-6.14.67-.69,1.46-1.23,2.45-1.07,1.96.32,3.74-.17,5.52-.97l8.89-4c6.61-2.97,12.53-6.84,18.6-10.83,4.17-2.74,8.19-5.27,11.91-8.41.11-.08.26-.08.4-.07.17.02.28.1.3.27-.39.65-1.06,1.12-1.73,1.52s-1.24,1.94-1.02,2.84c-.16.09-.47.33-.54.48-.04.1.38.29.29.35-.25.18-.31.25-.35.33-.05.12.08.32.22.34-.14.36-.3.77-.11.38.46-.42.78-.68,1.3-.88.14-.11.27-.01.26.07l-.1.51c.11-.17.66-.05.86-.17l3.99-2.46,2.26-1.27c.19-.11.71,0,.75-.37.05-.39.48-.34.74-.33.33,0,.67.04.66.48ZM53.68,109.02c-.18-.06-.37-.12-.64-.4l-1.87.8c-.97.42-1.79,1.2-1.45,2.27l1.45.26c.71.13,1.69,0,1.94-.83.4.39.82.24,1.2-.07l1.83-1.45c-.66-.7-1.71-.96-2.46-.59Z"/>
    <path class="cls-66" d="M47.03,112.35l-1.73.28c-.83.14-1.51.26-2.3.57l-5.91,2.36-4.66,2.1-4.62,2.15-2.07,1.1-2.01,1.15-5.78,3.29c-1.64.94-3.21,1.81-4.83,2.74l-3.24,1.87-2.68,1.47c-.88.71-1.86,1.08-2.78,1.69l-.72.53c-.91-.39-.88-1.31-.84-2.22.86.51,2.56-.34,3.42-1.42.35-.43,1.09-.63,1.6-1.01l3.16-2.35c.95-.7,1.87-1.25,2.83-1.91l2.22-1.52c2.54-1.74,5.07-3.33,7.99-4.4l4.39-1.61c.21-.08.43-.23.64-.24.17,0,.36.16.5.38-.44.22-.94.41-1.31.77l.13.27,6.14-3.12c3.09-1.57,6.65-3.58,10.26-3.26.38.03.98.24,1.11-.19.37.12.78.14,1.09.49ZM23.84,120.31l.14.27,2.32-1.29c-.05-.09-.14-.16-.27-.15l-2.19,1.17Z"/>
    <path class="cls-55" d="M150.86,32.53c-.32.41-.83.77-1.35.85.3.32-.22.58-.36.13l-2.05,1.23c.06.18.16.42.1.53.02.14-.13.16-.15.1-.02-.06-.12-.33-.31-.42-.42.69-1.28.94-1.92,1.32l-1.23,1.88c-1.21,1.05-1.96,2.52-3.13,3.71l-4.12,4.23-2.39,2.19-5.59,4.43c-.52.41-1.2.66-1.51,1.21-.49-.07-1,.5-1.42.82l-2.65,2c-.08.06-.17.22-.28.19-.09-.03-.15-.11-.22-.21l.83-1.32c.08.04.25.05.35-.06,1.01-1.07,2.31-1.61,3.43-2.47l6.02-4.58,2.5-2.31c2.1-1.94,4.1-3.84,5.72-6.18.65-.95,1.49-1.73,2.17-2.59.99-1.24,1.78-2.24,3.36-2.95,1.19-.53,2.92-1.75,4.19-1.72Z"/>
    <path class="cls-69" d="M141.99,50.25c-.71,1.48-4.28,4.01-6.29,3.69-.97-.15-1.25.19-2.05.44l-2.53.8c-2.93,1.6-5.75,3.22-8.36,5.2h-.57c-.33,0-.37-.53-.05-.73.52.02,1.75-.98,1.76-1.1.03-.26-.21-.27-.32-.34.62-.09,1.61-.09,1.95-.67.05.12.15.09.25-.02.11-.13.2-.17.04-.45.73-.07,1.25-.47,1.89-.81l2.05-1.08c.53-.28.94-.67,1.49-.88.94-.36,2.53-.14,3.51-2-.1-.23-.55-.55-.48-.94.09-.55.6-.92.85-1.24.16.03.19.08.19.16-.05.57-.85.91-.09,1.67.33.33.18.95-.04,1.35,1.94.23,3.4-.71,4.8-1.84.65-.52,1.2-1.19,2.01-1.2Z"/>
    <path class="cls-82" d="M141.99,50.25c-.81.01-1.36.67-2.01,1.2-1.41,1.13-2.86,2.06-4.8,1.84.23-.4.37-1.02.04-1.35-.76-.76.04-1.1.09-1.67,0-.08-.03-.13-.19-.16l.68-.87c.04.21-.06.4.13.69l3.05-.35c.27.3.47-.22.44-.47,1.19.12,2.73.03,2.73.73,0,.17-.08.27-.15.42Z"/>
    <path class="cls-39" d="M139.41,49.1c.03.25-.17.77-.44.47l-3.05.35c-.18-.28-.09-.47-.13-.69l5.58-5.55c1.28-1.28,2.76-2.21,3.9-3.49,1.9-1.29,3.26-.92,4.64-3.76.22-.46.82-.81.99-1.54.16-.67.46-1.43.96-1.8,0,1.76-1.96,5.02-3.27,5.9l-3.03,2.05c-3.12,2.56-5.99,5.25-9,8.21,1.09,0,1.93-.24,2.85-.15Z"/>
    <path class="cls-52" d="M151.87,33.09c-.5.37-.8,1.13-.96,1.8-.17.73-.77,1.08-.99,1.54-1.06-.08-2.03-.42-2.72-1.16.06-.11-.04-.35-.1-.53l2.05-1.23c.14.45.67.19.36-.13.52-.08,1.03-.44,1.35-.85.22,0,.61-.17.84.04.13.11.17.29.17.51Z"/>
    <path class="cls-57" d="M140.1,74.92c-.25.63-.25,1.33-.16,2-.15-.11-.37-.14-.53.04-.08-.18-.43-.47-.32-.79l.5-1.46c.16.16.28.26.51.21Z"/>
    <path class="cls-1" d="M100,68.62l-1.18.79c-.08.06-.19.22-.35.17-.08-.03-.16-.09-.25-.16-.31-1.06.15-1.75,1.1-2.28,1.74-.97,2.8-2.65,4.22-4.09-.55,2.11-2.12,3.25-3.62,4.64,1.03-.38,1.68-1.14,2.64-1.7,3.15-1.82,6.15-4.05,8.11-7.13-2.25,2.11-4.3,4.36-6.9,6.1l-.39.11c-.07.02-.19.09-.26-.06-.08-.18-.04-.27.11-.45.28-.72,1.02-1.45.83-2.21-.09-.35.59-.41.98-.36.65-.13,1.16-.46,1.22-1.02.06-.53-.32-1.02-1.08-1.32l4.3-4.16c.24-.23.36-.57.52-.7.85-.71,1.73-1.62,2.46-2.67.55.49,1.14.51,1.59.14.94-.76,1.33-2.59.83-3.12s-1.27-.7-1.74-.23c-.16-.09-.3-.12-.46-.05-.21.1-.2.21-.43.48l-.36.42c-.2.23-.22.51.23.91-.75.28-.69,1.02-1.02,1.43-1.02,1.29-2.25,2.45-3.22,3.28l-5.78,4.93-1.57.9c-.08-1.07.59-1.42,1.18-2.22l3.28-4.44s-.1-.13-.1-.21l-2.48,2.94,2.37-3.8c.67.52,1.38.53,1.94.14.49-.34.73-.91.54-1.44-.22-.61-.61-1.12-1.27-1.07-1.25.09-1.47,1.2-1.42,2.12-.53,1.27-1.69,2.45-2.5,3.61-.19-.13-.21-.34-.22-.49-.02-.28.18-.51.57-.54-.28-.76.15-1.46.44-2.07,0-.11-.13-.59.31-.43.1-.31.13-.68.44-.98.51-.49.68-1.37,1.34-1.83.47-.33.61-.96.98-1.5l2.4-3.37c.33-.47.44-1.25-.02-1.39l3.43-5.34c-.47.06-.67.06-.79.12-.08.03-.04.35.12.5l-4.78,6.98c-.82-.29-.04.75-1.27,1.47-.35,1.41-1.44,2.33-2.53,3.96-.56.84-1.29,1.57-1.81,2.45-.21.35-.52.44-.71.29-.64-.5.42-1.55.83-3.45.99-.09,1.65-1.17,1.84-2.23.09-.5-.09-.98-.45-1.21-.26-.16-.95-.12-1.16.25-1.41,2.43-4.47,4.17-6.91,9.57-.2.45-.93.87-.63,1.6-.5.28-.61.62-1.24.79.46-1.52.5-3.16,1.31-4.66.29-.23,1.06-.38,1.05-.93,0-.33-.06-.84-.31-1.22,1.06-3.51,2.69-6.82,4.72-9.82.77-.2,1.59-.37,1.91-1.06.25-.54.61-1.32.04-1.96-.61-.68-1.59-.17-2.2.26-1.06.73-1.53,1.91-.9,3.01-.74.45-1.21,1.2-1.63,2.01l-2.06,3.92-1.49,3.25c-1.56.04-.98,1.37-2.78,2.6-.85-1.89-2.02-3.98-1.98-6.16.03-1.33.96-2.53.76-3.8-1.8,4.65-2.58,10.86-1.76,15.53.12.68-.24,1.4-.54,2.13-.48-1.56-.42-3.09-.43-4.78-.03-4.42.65-8.95,2.5-13.14.79.27,1.91.14,2.31-.91.7-.91.7-2.33-.52-2.94-1.38.49-2.16,2.01-1.88,3.41l-.73,1.23c-.09-3.44.86-6.74,2.87-9.55,2.4-3.35,5.56-5.68,9.68-6.35l4.11-1.09c2.42-.64,4.92-.95,7.36-.31,2.68.7,2.99,4.54,5.13,4.5,3.37-.06,5.69,3.16,6.24,6.66l.93,5.91c.8,5.06-.67,8.44-3.44,12.69-1.43,2.2-2.94,2.6-2.63,3.85-2.62,1.73-5.5,3.47-8.65,4.61,2.53-3.01,5.17-4.99,8.89-5.97-2.77-.54-5.22,1.89-7.35,3.34-1.38.43-3.01.37-4.53.49l2.1-1.99c1.19-1.12,2.43-2.43,3.29-3.83.66-.21,1.98,0,2.26-.97.15-.53-.59-1.25-1.01-1.41-.53-.19-1.12-.08-1.74.03s-1.24.7-1.07,1.38c.1.4.57.73,1.27.93-3.14,4.06-7.01,7.21-11.38,9.74ZM121.33,46.62c-.25.22-.11.49.07.44s.29-.12.23-.31c-.02-.06-.07-.33-.31-.13ZM101.86,46.87s.13.01.2-.06l1.28-3.85s-.13-.01-.2.06l-1.28,3.85Z"/>
    <path class="cls-80" d="M139.6,74.71l-.5,1.46c-.11.31.24.6.32.79l1.08,2.42c.59,1.32-1.06,3.36-2.19,4.7l-2.39,2.84c-1.54,1.83-3.13,3.04-5.37,3.86-3.05,1.11-6.22,1.63-9.47,1.3-1.49-.15-2.95-.08-4.38-.63-1.93-1.96-4.3-3.06-6.9-4.35.62-.81.65-1.3-.02-2.02-.91-.59-2.12-.53-3.09,0-.86-.73-1.3-1.56-1.56-2.57l-.37-.64c.11-.42-.15-.77-.29-1.22,2.62.95,4.42,2.85,7.53,2.64.29-.15.65-.85,1.08-.73.78.65,1.85.9,2.89,1.18l2.77.73c.68.18,1.39.62,2.13.26-.73-.36-1.51-.34-2.74-.8-.52-.81-2.36-.62-3.45-1.55-.02-.14,0-.55-.13-.55s-.36-.17-.25-.37l.55.2c.09.03.21,0,.26-.16.69.25,1.57.31,2.28-.12.48-.29.62-.73.54-1.2-.14-.76-1.54-1.51-2.85-1.41v-.66s6.06.28,6.06.28c1.57.07,3.11-.2,4.55-.43l8.4-1.33c-.06-.07-.08-.17-.08-.21-.92-.02-1.85.15-2.76.3.01-.07.21-.3.15-.51l-3.11-.29-4.97.21-4.08-.16c-2.71-.11-4.83-.36-7.52-.93-.5-.11-1.1.1-1.48-.11l-.08-.9,2.99-.63c.97.36,2.43-.33,3.36-.54l1.9-.43,3.86-1.12c.47-.14.86-.29,1.12-.62.17.11.66.13.72-.1-.26-.37-.58.04-.72.1-.75-.17-1.44.65-2.17-.04.22-.36.57-1.29.17-1.68-.82-.77-2.22-.53-3.14-.06-.6.31-.69.91-.66,1.47-1.65.85-3.59,1.3-5.4,1.69-1.29.28-2.45.76-3.85.64l2.96-1.61s-.07-.12-.11-.27l-4.13,1.97-3.8.96c.48-1.18,1.89-.84,2.22-1.37,1.86.03,3.54-1.14,5.35-1.71.16-.05,3.76.38,3.52-1.3-.03-.2-.08-.55-.44-.75-1.19-.67-3.12-.13-3.19,1.55-1.67,1.34-4.97,1.78-5.24,2.21-.14-.01-.5.09-.74.01.05-.62.77-.5,1.09-.65,1.09-.53,1.45-1.68,1.67-2.81,4.22-1.22,7.89-3.2,11.15-6.11,1.41.36,2.36-.96,3.12-1.83,2.3-.35,5.08.46,7.29,1.23,1.5.52,2.56,1.39,3.61,2.44l2.21,2.21,3.24,2.54c1.65,1.29,2.14,3.37,1.48,5.3ZM131.16,78.57l3.11-.46-.09-.2-3.05.35c-.41-.25-.5.3.03.31Z"/>
    <path class="cls-44" d="M85.88,63.37c-.03.28-.1.7.24.9-.14.28-.02.73-.3,1.15-1.39-3.2-2.41-6.48-3.24-9.93-.1-.4-.06-.63-.36-.89.24-.46.05-1.31-.29-1.69.38-1.31-.67-2.89.12-3.26,1.31-.61,1.34-2.31.56-3.44-.35-.51-.8-.63-1.36-.54-.34.05-.63.48-.84.94-.03.98.24,1.88.59,2.62-.27,1.18-.2,2.33-.06,3.49l.56,4.41c-.39.02-.62-.27-.62-.52-.89-1.03-1.72-2.11-2.24-3.51l-1.61-4.35-.07-.56c-.02-.16-.2-.49-.69-.25.81.73.06,1.47.16,1.94l.76,3.89c-.22-.03-.41-.02-.54.02l-2.86-3.44-3.14-5.19c-.14-.24-.2-.39-.47-.39l-.91-1.78-.21.09,1.17,2.91c-.42.81-.02,1.57.33,2.3l2.25,4.77c.33.7,1.03,1.23,1,2.19-1.51-.56-2.62-2.24-3.42-2.25-.69-.01-1.45.11-1.88-.55-.16.04-.3.17-.31.24-.02.13.11.25.24.41l1.43,1.74c.24.3.52.15.7.15-.1.44.31.56.53.75l1.7,1.44,2.05,1.43c.03.11-.13.24-.19.19-.58-.43-.87.21-2.12-.45-3.23-1.69-5.88-3.17-8.08-6.07l-1.57-2.07-.69-1.81-.97-3.08c-.09-.29.04-.83.05-1.1-.18.09-.32.08-.48.01.4-1.85.22-3.68-.56-5.51-1.26-2.97.35-7.51,3.51-9.42.59-.36.97-.87,1.36-1.4,1.14-1.54,3.13-1.79,4.82-1.1l3.44,1.43c5.48,1.51,7.32,2.18,10.57,6.89,3.16,4.58,3.83,8.93,2.65,14.35l-.93,4.29c-.86,2.26-1.4,4.61-.6,6.96.32.93.82,1.73.84,2.68ZM67.9,33.15c.04.17.2.15.27.06l-.61-2.63-.21.09.54,2.48ZM69.15,41.89c-.1-.31-.15-.42-.27-.44-.11-.02-.24.17-.21.27.03.08.17.17.2.37l.06.51c.01.09.43-.1.4-.18l-.17-.53Z"/>
    <path class="cls-17" d="M90.82,99.33c-2.18-1.17-4.13-2.51-5.69-4.34-1.47-1.44-2.07-3.35-1.55-5.23,1.26-1.03,1.33-2.57,1.79-4,1.75-2.04,4.99-2.05,5.45-5.88,1.56,2.46,5.61,5.84,7.42,4.97.38-.18.69-.51.72-1.1,2.23,1.39,4.58,2.62,6.98,2.78-3.75-1.4-6.23-2.08-9.09-4.97-1.14-1.15-2.37-2.21-3.11-3.63-.45.32-.34-.07-.31-.18.08-.24-.3-.48-.48-.51-.09-.01.02-.38.18-.35.16.04.35.25.42.4.29.61.79.73,1.22,1.15l2.59,2.54c2.51,2.46,5.49,4.13,8.79,5.01.23,1.08,1.34,1.37,2.28,1.14l5.32,2.86c2.05,1.1,3.66,2.85,4.44,5.05.85,2.4.46,4.87-1.54,6.59-.89.76-2.25,1.09-3.38,1.72-3.61,2-4.75.93-8.11-.72-2.73-1.34-6.15,1.09-10.06-1.01l-4.28-2.3ZM91.8,90.11c.11-.02.23-.11.23-.28l.07-2.85c.03-1.05.28-2,.22-2.95-.02,0-.11.07-.23.07l-.34,3.23c-.1.96-.06,1.91.04,2.79ZM95.37,86.88c0,.44-.02.89.29,1.42.23-.42.13-1.16-.29-1.42,0-.31.14-.64-.22-1.06-.23.39-.15.92.22,1.06ZM105.84,92.06c-.53.46-1.49-.13-1.77-.9-.41.04-.77.05-1.14-.47-.71,1.66,1.19.66,3.02,2.45.1-.37-.01-.63-.11-1.08ZM99.4,95.31c-1.5-2.1-2.47-4.24-3.5-6.62.49,2.52,1.62,4.92,3.5,6.62ZM89.13,90.36c-.41.05-.34.28-.32.48.02.26.13.29.24.27.33-.08.23-.26.31-.35.15-.19.05-.42-.22-.39ZM102.64,98.6l-1.16-.9c.13.72.72.96,1.16.9Z"/>
    <path class="cls-2" d="M81.23,71.69c0,.14-.13.34-.34.25-1.91-.77-4.89.31-10.45-2.07-.36-.15-.51-.48-.54-.92-.52.27-.57.68-.41,1.04.15.32.41.6.8.78l1.58.74c1.15.54,2.49,1.04,3.74,1.29l1.92.38c.07.42-.37.63-.67.8-2.38,1.36-4.08,1.14-4.28,1.69-.09.25.25.07.71.35l-.83.21c-1.07.26-2.12.02-3.15.31,2.04.31,4-.02,5.96-.47.59.82,1.94-.03,2.06,1.72.78-.75,1.74-.9,2.58-.43l-1.34,1.25c-.81.37-1.63,1.11-2.11,2.02.81-.62,1.92-1.44,2.11-2.02.41-.19.74-.44,1.22-.74l.71-.44c.22.29.37.48.57.73-.07.2-.2.59.1.96,1.02-1.31,2.23-2.05,3.36-2.8l1.71-1.14c.19.04.14.29-.02.27-4.05,3.2-1.06,6.58-1.56,10.33-.3,2.21-1.59,4.34-3.81,4.96-1.47.41-3.26.17-4.72-.37-3.35-1.22-5.82-3.63-7.72-6.49-.58-.87-1.11-1.6-1.43-2.62-.54-1.69-1.93-2.99-3.35-4s-2.41-2.54-2.09-4.33c.37-2.12-.47-4.08-1.88-5.62s-2.22-3.75-1.58-5.7c.52-1.6,1.9-2.28,3.32-2.47,5.84-.78,11.35,1.73,14.23,6.96,1.36,2.47,2.99,4.8,5.61,5.59ZM67.81,76.32c-.55-.43-1.04-.41-1.57-.25.56.42,1.03.4,1.57.25Z"/>
    <path class="cls-65" d="M81.49,57.13l.48,2.41c-.52-.44-1.64-.92-2.1-.19-.7,1.13-.2,2.38.46,3.25l.49,2.56-5.37-.66c-3.18-4.15-6.76-5.99-12.12-6.14-1.84-2.38-3.14-5.16-3.31-8.18-.12-2.08.36-4.06.77-5.97.17.07.31.07.48-.01,0,.27-.14.81-.05,1.1l.97,3.08.69,1.81,1.57,2.07c2.2,2.9,4.85,4.38,8.08,6.07,1.26.66,1.54.02,2.12.45.07.05.22-.08.19-.19.61.42,1.1,1.07,1.86,1.27.01,0,.07-.11-.04-.19-.98-.85-2.08-1.62-3.2-2.47l-2.91-2.22c-.18,0-.46.15-.7-.15l-1.43-1.74c-.13-.16-.26-.28-.24-.41.01-.07.15-.21.31-.24.43.67,1.19.54,1.88.55.8.02,1.91,1.69,3.42,2.25.03-.96-.67-1.49-1-2.19l-2.25-4.77c-.34-.73-.75-1.49-.33-2.3,1.55,3.14,3.13,6.22,5.52,8.89-.13.22.06.71.36.57.13-.14-.23-.59-.36-.57-2.17-3.2-4.15-6.46-5.57-10.11.27,0,.32.15.47.39l3.14,5.19,2.86,3.44c.12-.04.31-.04.54-.02l-.76-3.89c-.09-.47.66-1.21-.16-1.94.49-.24.67.09.69.25l.07.56,1.61,4.35c.52,1.4,1.35,2.48,2.24,3.51,0,.25.23.54.62.52ZM77.67,57.21c-.19-.74-.66-1.21-1.34-1.6.19.74.66,1.21,1.34,1.6Z"/>
    <path class="cls-121" d="M66.41,81.22c1.44,3.72,5.04,7.79,8.97,9.51-2.29-.18-4.42-1.17-6.37-2.57l-5.4-3.86c-3.66-2.62-5.57-6.75-5.98-11.19l-.96-5.36c-.25-1.39-.22-2.73.58-4.11.76,4.09,4.51,4.92,3.86,9.5-.6,4.21,3.84,4.27,5.31,8.07ZM63.63,82.24c-.37-.04-.46.16-.42.28.08.25.24.28.35.37.2.15.42.07.41-.21,0-.13-.04-.41-.33-.44Z"/>
    <path class="cls-92" d="M90.17,99.79l3.14,1.73c2.21,1.22,4.57,2.01,7.12,1.51,2.39-.47,4.42-.2,6.54,1.13,1.93,1.22,4.54,1.14,6.14-.41,1.16-.08,1.73-.95,2.84-1.17-1.73,1.67-3.71,3.16-5.95,3.82-8.52,2.53-17.08-1.59-23.15-7.76-.6-1.1-1.62-1.72-2-3.08,1.58,1.7,3.25,3.08,5.32,4.22Z"/>
    <path class="cls-28" d="M131.23,76.72l-5.07.78c-.16.03-.25.12-.42.07s-.28.25-.08.39c-1.44.23-2.98.5-4.55.43l-6.06-.28v.66s-.97.68-.97.68c-1.06.19-2.13.02-3.16-.14l-3.38-.52-3.34-1.06c.53-.18.94-.15,1.21-.51.42.18.99-.12,1.34-.38-.61-.11-1.13.09-1.34.38-.64-.27-7.54,1.86-11.15-.29.39-.31.88-.38,1.23-.29,3.56.82,7.98.78,11.39-.46.12.62.4.81.74.96,1.28.54,2.67-1.35,2.59-2.21.38.21.98,0,1.48.11,2.68.57,4.81.82,7.52.93l4.08.16,4.97-.21,3.11.29c.07.22-.13.44-.15.51ZM117.33,77.56l-.07-.19-3.41-.46-3.3-.58c.55.55,1.36.5,2.09.67,1.67.38,3.22.63,4.69.56Z"/>
    <path class="cls-19" d="M102.08,56.84c-.76,1.09-1.76,1.99-2.65,3.05l-1.74,2.09c-.47-.52-.96-.62-1.7-.54-.42.04-.95.49-1.27.91-1.35.27-2.45.87-3.71,1.67.74-1.58,1.64-3.1,2.95-4.03.7-.18,1.86.19,2.36-.8.27-.53.11-1.13-.27-1.43-.49-.38-.97-.28-1.64-.25,1.21-2.4,5.19-7.68,5.69-7.4.09.05.08.31.03.42-.07.14-.25.15-.37.18-1.74,1.92-3.14,4.03-4.09,6.57l2.16-3.51,2.16-3.01c.28-.02.64.38.83.46-.42,1.9-1.48,2.95-.83,3.45.19.15.5.06.71-.29.52-.88,1.25-1.62,1.81-2.45,1.09-1.62,2.18-2.55,2.53-3.96,1.22-.71.44-1.75,1.27-1.47.05.11-.4.15-.38.27.03.14.28.27.36.23.1-.05.22-.19.29-.29l1.74-2.46c.46.14.35.92.02,1.39l-2.4,3.37c-.38.53-.51,1.17-.98,1.5-.65.46-.83,1.34-1.34,1.83-.31.3-.34.67-.44.98-.45-.16-.3.32-.31.43-.29.61-.72,1.31-.44,2.07-.39.03-.59.26-.57.54.01.15.03.36.22.49ZM98.13,59.39c.9.08,1.91-.43,2.01-1.21.06-.51.03-.89-.16-1.24-.16-.29-.59-.55-1.02-.49-.81.12-1.13.73-1.37,1.29-.38.91.82,1.6-.66,3.33.11.09.22.12.32.14l.89-1.83Z"/>
    <path class="cls-47" d="M86.24,75.17l-1.71,1.14c-1.13.76-2.34,1.49-3.36,2.8-.3-.37-.17-.76-.1-.96.28-.83,1.05-1.4,1.59-2.15.43-.22.84-.36,1.14-.66-.04-.07-.12-.13-.25-.12-.75.21-1.38.65-2.16,1.06-.03.09-.03.24.01.23-.58.11-1.09.48-1.51.84-.84-.48-1.8-.32-2.58.43-.12-1.75-1.47-.9-2.06-1.72l5.11-1.18,3.43-.69c-.73-.38-1.46-.04-2.14.12l-5.6,1.25c-.92.21-1.87.49-2.78.47-.47-.27-.8-.09-.71-.35.2-.55,1.91-.33,4.28-1.69.3-.17.74-.38.67-.8.96.19,1.98.09,3.01-.14l-4.93-.64-4.26-1.48-.53-.38c-.19-.14-.42,0-.54.23-.39-.18-.65-.45-.8-.78-.17-.36-.11-.77.41-1.04.03.44.18.76.54.92,5.56,2.39,8.54,1.3,10.45,2.07.21.08.35-.11.34-.25,2.93.89,4.7.59,5.01,3.48Z"/>
    <path class="cls-87" d="M59.59,48.7c-.38,2.62.35,4.8,1.44,7.26-2.39-2.34-3.19-5.55-3.64-8.68-.24-1.67-.08-3.23-.03-4.95l.11-3.65c.35-2.77.98-5.59,3.33-7.43-1.01,2.33-1.93,4.39-1.3,6.79.37,1.43.97,2.8,1.02,4.31l-.92,6.37Z"/>
    <path class="cls-112" d="M113.13,48.91c-.79.36-1.13,1.38-1.01,2.24-.03-.2-.4-.09-.31-.05s.28.38-.19.34c-.14,0-.03.38.2.26.12-.06.21-.1.28-.37.18.22.25.38.36.65l-1.7,1.65-.78,1.16-5.17,4.69c-.32.3-1.15,0-1.44.74-.13.34-.33.71-.19,1.28l-4.15,3.17c-.23-.61-1.15-1.2-1.74-.7-.93.79-.99,1.99-.52,2.89-.56.53-1.22,1.03-1.57,1.66l-3.94,3.64c-.55.51-1.18.82-1.8.99-.19-.13-.17-.33-.05-.52,1.86-2.72,4.38-3.71,5.58-6,.17-.31-.22-.54-.4-.13.27-.78.11-1.22-.16-1.46-.41-.36-.85-.32-1.41-.28.51-.8,1.13-1.16,1.75-1.35.3.32.57.58.63.81-.27.31.21.32.19.07,0-.06.05-.2.14-.4,1.12.03,1.85-.68,1.95-1.67l4.08-4.29c.01.06.04.12.1.16l-2.9,3.78c-.42.55-1.06.85-1.24,1.62.9-.63,1.6-1.43,2.25-2.34.17-.28.34-.32.53.05-.23.28-.65.64-.79,1.15.92-.62,1.6-1.41,2.36-2.06l5.78-4.93c.97-.83,2.19-1.99,3.22-3.28.33-.42.27-1.15,1.02-1.43-.46-.4-.43-.67-.23-.91l.36-.42c.23-.27.22-.38.43-.48.16-.07.3-.04.46.05Z"/>
    <path class="cls-113" d="M115.1,81.51c-.05.17-.17.19-.26.16l-.55-.2c-.11.19.11.37.25.37s.11.41.13.55c1.09.92,2.92.74,3.45,1.55-.31-.12-.63-.08-.97-.18l-4.09-1.18c-.44-.13-.79.58-1.08.73-3.11.21-4.91-1.7-7.53-2.64.14.45.4.8.29,1.22-.71-1.2-1.56-2.16-2.84-3,1.5-.04,2.49.68,3.72.9,2.65.46,5.32,1.27,8.02.75-4.07-.36-7.77-.8-11.53-2.27.86-.71,2.29.17,4.63.69l1.74.38c1.8.4,3.58.7,5.47.45-.13,1.09.48,1.49,1.15,1.73Z"/>
    <path class="cls-84" d="M103.11,80.71c1.03.88,1.35,2.27,1.84,3.43.18.43.67.72.65,1.33-3.96-1.48-7.53-3.71-10.1-7.21,2.1.04,3.77.15,5.6.07.24-.01.58.16.81.32l-1.06.13,2.26,1.93Z"/>
    <path class="cls-38" d="M76.99,91.86c-.04.36-.56.26-.75.37l-2.26,1.27-3.99,2.46c-.2.12-.75,0-.86.17l.1-.51c.02-.08-.12-.18-.26-.07-.52.19-.84.46-1.3.88-.19.4-.04-.02.11-.38-.14-.02-.27-.22-.22-.34.04-.08.1-.15.35-.33.09-.06-.34-.26-.29-.35.07-.15.38-.39.54-.48-.22-.9.36-2.45,1.02-2.84s1.34-.87,1.73-1.52c.66-.02,1.37.27,2.07.57,1.7.75,3.47.33,4.02,1.1Z"/>
    <path class="cls-86" d="M83.81,69.95l1.13.92.5.22c.09.04.25-.07.29-.18.06-.04.18-.05.26-.02.19.07.19.17.16.35-.06.44-.38,1.16-.92.93s-1-.27-1.4-.35c-3.5-.66-6.37-2.79-7.73-6.36,1.83.02,3.44.2,5.08.63l1.74,3.31c.19.36.52.72.88.54Z"/>
    <path class="cls-109" d="M131.25,54.29c-.55.21-.96.6-1.49.88l-2.05,1.08c-.64.34-1.16.74-1.89.81.17.28.08.31-.04.45-.1.11-.19.14-.25.02-.34.58-1.33.58-1.95.67.11.08.35.09.32.34-.01.13-1.24,1.13-1.76,1.1-.24-.01-.49.26-.67.37-.38-.01-.82-.16-1.25-.32l2.06-2.99c.07.1.13.19.22.21.11.03.2-.13.28-.19l2.65-2c.42-.32.93-.88,1.42-.82.31.38,1.18-.04,2.64.44.57-.57,1.3-.6,1.74-.07Z"/>
    <path class="cls-7" d="M87.95,75.05l.34.22c.07.29.53.3.82.27-.15.08-.23.54-.08.54.11,0,.39-.17.62.14.04.07-.2.16-.3.18-.08.01-.07.3.03.42l.31.39c.04.05-.29.14-.33.25.34.05.42.17.5.36.07.16.07.3-.12.56.04.08.52.36.44.61-.22.69.21,1.06-.67,1.22-.04-.26-.44-.32-.39.04-1.02.05-2.02,1.12-2.38.66l-.43-.55c.07-.9-.82-1.42-1.26-1.96-.5-.61.7-1.7,1.63-2.86l.1-.72c.02-.13.47-.36.56-.26.22.25.47.38.62.48Z"/>
    <path class="cls-40" d="M99.04,64.67c.37.97-.22,1.93-.97,2.35l-.4.06c-.11.02-.22.29-.22.39-1.08,2.34-2.72,4.33-4.91,5.86-1.28.97-2.74,1.53-4.24,1.93l-.34-.22c.02-.2.18-.52.15-.7-.02-.14-.44-.37-.48-.41.7,0,.94-.17,1.14-.6l.72-.2c.63-.17,1.25-.48,1.8-.99l3.94-3.64c-.68,1.26-1.25,1.49-.3,1.99.91-.9,1.85-2.07,2.38-3.37-.17-.06-.44-.15-.51-.28-.48-.9-.42-2.1.52-2.89.59-.5,1.51.1,1.74.7ZM97.44,66.6c.61.21,1.15-.6,1.22-1.06.05-.35,0-1.1-.55-1.22-.61-.13-1.07.39-1.19.84-.1.39-.18,1.2.52,1.44Z"/>
    <path class="cls-21" d="M103.31,74.4c1.58.18,2.96.12,4.53-.04l-.95,1.63c-3.19.6-6.36,1.17-9.61.61.42-.41,1.18-.79,1.62-.63l1.95.72c.09-.05.17-.15.2-.19l-1.64-.7c1.08-.94,2.54-1.29,3.9-1.39Z"/>
    <path class="cls-33" d="M106.03,67.91l-4.19,1.05c-.31-.16-.48-.47-.3-.7,1.27-.74,2.25-1.99,3.66-2.5l4.72-.68c.1.32-.22.67-.6.63-.08.01-.05.27-.14.35-.08.07-.39-.03-.52.19-.61,1-1.62,1.41-2.64,1.66Z"/>
    <path class="cls-49" d="M86.31,80.36l.43.55c.36.46,1.36-.61,2.38-.66.36,0,.46.28.74.63.34.42-.4.72-.74.92l-.09.53c-.02.14-.42.17-.68.15.08.13.14.27.08.33-.11.11-.35,0-.4.12-.29.65-1.25.84-1.71.98-.02.36-.68.77-.94.55-.12-1.92-.99-4.25-.41-4.61.26-.16.73-.28.97-.07-.04.33.09.6.38.57Z"/>
    <path class="cls-79" d="M81.93,52.92c-.14.47-.06,1.38.29,1.69-.08.25-.06.42,0,.72.71,3.69,1.86,7.13,3.29,10.59.3.72.17,1.62-.17,2.21-.08.14-.57-.04-.58-.18.08-.3,0-.82-.11-1.08.26.06.46-.14.35-.38-2.57-5.36-3.79-11.09-3.92-16.89.29-.36.79.06.33.25.38,1.35-.04,2.49.52,3.08Z"/>
    <path class="cls-106" d="M90.46,61.56l.46.14-.71.77-1.43,2.48c-1-.4-.27.3-.64,1.47-.2.11-.34.22-.29.34.1.24.16.32.46.37l-1.04,1.16c-.29-1.71.5-3,.67-4.41.25-2.1.91-4,1.98-6.05.55,1.43.39,2.8.25,4.18.29-.09.29-.35.29-.46Z"/>
    <path class="cls-89" d="M90.91,61.7l-.46-.14.76-2.45c-.38.04-.44-.16-.48-.38l-.29-1.72c.26-.87.87-1.64,1.61-2.13l-1.01,3.95.23.1,1.16-3.86c.09-.27-.38-.69-.62-.99.22-.67.8-.9,1.27-.92s1.16.46,1.1.95c-.09.7-.82.77-1.17.92l-.97,4.88c-.15.75-.71,1.33-1.13,1.79Z"/>
    <path class="cls-22" d="M89.29,56.11c-.33,1.57-1.37,2.81-2.03,4.27-.41-2.27-.17-4.26-.11-6.4.03-.96.1-1.85.52-2.89.69,1.43.72,3.14,1.62,5.02Z"/>
    <path class="cls-115" d="M101.09,74.35c-3.42,1.42-7.61,2.56-11.13,2.14-.21-.07-.23-.31-.16-.39.07-.09.32-.17.47.04,3.4-.43,6.73-.99,9.95-2.16,2.69-.62,4.2-3.34,4.48-2.35.08.3-1.98,2.03-3.61,2.71Z"/>
    <path class="cls-61" d="M88.67,69.08c-.65,1.3-1.5,2.57-1.68,4.13-.86-.76.13-3.91,1.72-5.98,1.5-1.96,3.28-3.81,5.9-4.42-2.42,1.91-4.63,3.67-5.93,6.26Z"/>
    <path class="cls-64" d="M99.69,71.48c-.81,1.17-2.35,1.61-1.87,2.35.85-.67,1.32-1.47,2.2-1.74-.14.38.16.4.33.31.64.11,1.22-.18,1.9.29-2.06.99-4.1,1.68-6.15,1.98l.43-.61c.08-.11-.14-.2-.21-.13-.05.05-.35.11-.45-.12-.53.82-1.44,1.51-2.51,1.25,1.72-1.7,4.28-2.13,5.89-4.14.22.13.31.38.45.55Z"/>
    <path class="cls-61" d="M86.82,66.75l-.49,3.22c-.3-2.65.04-5.21.91-7.83.94-2.85,1.93-5.84,4.45-7.76-1.43,2.25-2.78,4.17-3.44,6.73l-1.43,5.63Z"/>
    <path class="cls-8" d="M89.12,75.54c-.29.03-.75.02-.82-.27,1.5-.4,2.96-.96,4.24-1.93,2.19-1.53,3.82-3.52,4.91-5.86.04-.01.37.1.36.18-.64,2.65-2.27,4.74-4.53,6.15-1.34.84-2.65,1.6-4.15,1.73Z"/>
    <path class="cls-15" d="M98.07,67.02c.76-.42,1.34-1.38.97-2.35l4.15-3.17c.21.11.35.25.53.62l-3.16,3.63c-.85.98-2.5,2.02-2.49,1.27Z"/>
    <path class="cls-111" d="M97.06,82.26c-.57.05-1.05.08-1.49.64-1.86-1.57-3.23-3.46-4.28-5.61.4-.2.97-.13,1.12.01,1.38,1.85,2.72,3.46,4.65,4.96Z"/>
    <path class="cls-12" d="M90.76,70.02l-.24.38-2.44,2.92c-.14.17-.49.34-.56.76-.66-.06-.34-.68-.54-.86.19-1.56,1.03-2.83,1.68-4.13.77.33,1.53.42,2.1.94Z"/>
    <path class="cls-120" d="M84.65,66.86c.12.26.19.78.11,1.08l-1.58-1.02c.26-.89-.68-1.59-.96-2.3l-.75-1.92c.51-.74.6-1.45.72-2.38.78,2.26,1.47,4.44,2.46,6.55Z"/>
    <path class="cls-36" d="M123.38,70.69c-.26.33-.65.49-1.12.62l-3.86,1.12-1.9.43c-.93.21-2.39.91-3.36.54,1.62-.67,3.24-1.26,4.76-2.15-.36-.13-.48-.34-.19-.63,1.13.46,2.53.54,3.51.02.73.7,1.41-.12,2.17.04Z"/>
    <path class="cls-36" d="M104.49,74.11c.1-.39.73-.45,1.23-.52,3.94-.56,7.66-1.39,11.54-2.5-2.12,1.46-4.56,1.88-6.98,2.41-1.93.42-3.83.85-5.79.61Z"/>
    <path class="cls-10" d="M107.32,68.75c-.4-.37-.52-.45-.61-.71,1.56-.25,2.8-.89,4.21-1.36l3.74-1.89,3.45-1.92c-2.02,1.84-4.29,3.19-6.76,4.28-1.34.59-2.81.86-4.02,1.6Z"/>
    <path class="cls-26" d="M97.89,43.6l.41-.09c.2-.04.34.26.09.23l-2.47,4.37-1.19,2.81-.72,1.96c-.34-.09-.57-.2-.79-.41l1.25-2.73,1.11-2.29,2.32-3.86Z"/>
    <path class="cls-107" d="M90.52,70.39l.24-.38c.45-.7.93-1.37,1.59-2.29-.4-.39-.98-.62-1.71-.73.37-.65.8-1.16,1.49-1.6l1.29,1.46c.51-.17.8-.36,1.39-.21-.61.53-1.08,1.08-1.76,1.46-1.45.81-1.95,2.61-2.55,2.28Z"/>
    <path class="cls-3" d="M99.24,70.93c-.1-.06-.24-.17-.32-.11s.06.47-.47.36c-.04-.42.47-1.01,0-1.62-.49,2.2-.92,2.89-3.14,3.49l2.1-3.23c.15-.23.14-.39.31-.48.2-.11.33-.04.49.08.09.07.17.13.25.16.16.05.27-.12.35-.17l1.18-.79c.34.6-.74.82-.75,2.3Z"/>
    <path class="cls-25" d="M85.73,70.91c-.04.11-.21.22-.29.18l-.5-.22-1.13-.92.15-.44c.03-.09-.23-.32-.55-.02-.92-1.65-1.81-3.38-2.38-5.33-.15-.53-.45-1.14.06-1.66l1.38,4.07c.59,1.75,2,3.09,3.27,4.34Z"/>
    <path class="cls-18" d="M95.32,83.75c-2.42-1.61-4.31-3.85-5.15-6.44.44.22.4.29.73-.01.72,2.08,3.51,5.83,4.65,5.98.18.02-.04.6-.24.47Z"/>
    <path class="cls-27" d="M88.67,66.19c.42-1.09.98-1.99,1.58-2.97.75-1.37,1.68-2.65,3.12-3.39-.77,1.02-1.5,1.83-2.05,2.91-.64,1.26-1.12,2.6-2.65,3.45Z"/>
    <path class="cls-34" d="M100.08,72c0-.12.03-.23.06-.34.62-.03,1.17-.5,1.68-.67l2.1-.71c.21-.15.39-.23.48,0,.37.88-1.77,2.69-4.33,1.73Z"/>
    <path class="cls-16" d="M89.19,44.84c-.59-.38-.42-1.5-.12-2.02.29-.49.76-.99,1.54-1,.6,1.08,0,2.8-1.41,3.02Z"/>
    <path class="cls-102" d="M109.64,86.02c-.06.74-.94.91-1.37.9-.49-.01-1.54-.28-1.53-.92s.93-.8,1.39-.87c.52-.08,1.57.15,1.51.89Z"/>
    <path class="cls-32" d="M118.89,62.33c-.35-.04-.62-.35-.58-.63.06-.48,1.66-1.94,2.92-1.41-.15,1.23-1.03,2.18-2.34,2.04Z"/>
    <path class="cls-14" d="M114.76,80.64c-.2-.24-.27-.46-.2-.59.06-.11.38-.21.62-.03.23-.17.15-.32.07-.64.57-.42,2.29.21,2.13,1.13-.17.98-2.1.73-2.61.12Z"/>
    <path class="cls-71" d="M100.31,42.12l-2.26.77c.17-1.17.95-2,1.89-2.41.38-.16.74.3.84.58.13.37.12.86-.46,1.06Z"/>
    <path class="cls-51" d="M109.57,74.21c.56.35-.37,2.83-1.85,2.51-.51-1.45,1.23-2.91,1.85-2.51Z"/>
    <path class="cls-45" d="M106.52,68.81c.96.53-.33,2.89-1.3,2.39-.78-.41.47-2.8,1.3-2.39Z"/>
    <path class="cls-50" d="M80.79,62.06c-.68.03-.8-1.02-.77-1.5.04-.52.23-.9.71-.98.42-.07.83.28.88.88.04.52-.08,1.57-.82,1.6Z"/>
    <path class="cls-70" d="M104.05,69.8c-.7.16-1.32.6-2.01.48.1-.24.04-.55,0-.98l3.41-.86-.86,1.4c-.31-.27-.44-.07-.54-.04Z"/>
    <path class="cls-116" d="M82.21,48.91c-.78-.52-.81-1.38-1.28-2.09-.23-.35.4-1.03.75-.77.89.66,1.24,1.9.53,2.86Z"/>
    <path class="cls-117" d="M101.75,69.81c-.11.63-.39.93-.67,1.16-.26.2-1.1.29-1.24-.14-.28-.83.67-1.59,1.44-1.7.32-.05.54.34.48.68Z"/>
    <path class="cls-97" d="M113.44,57.76c-2,1.33-3.48-.1-2.68-.11.18,0,.33,0,.43-.04-.02-.69.63-.83,1.07-.79.54.04.99.43,1.18.94Z"/>
    <path class="cls-35" d="M106.98,52.41c.18.3-.28.82-.55.96-.33.17-.91.32-1.23-.06-.4-.48-.19-1.23.18-1.43.5-.27,1.18-.16,1.6.54Z"/>
    <path class="cls-78" d="M105.68,60.95c-.16.83-1.96.78-2.16.09s.5-.95.86-.99c.47-.05,1.42.28,1.3.91Z"/>
    <path class="cls-62" d="M98.29,83.8c.04.61-.88.53-1.24.52-.44-.02-1.32-.51-1.02-1.12.38-.76,2.18-.23,2.26.6Z"/>
    <path class="cls-59" d="M100.58,50.67c.14-1.17.48-2.08,1.28-2.82.48.58.42,1.16.2,1.72-.19.47-.63,1.03-1.48,1.1Z"/>
    <path class="cls-63" d="M95.94,58.96c-.09.44-1.31.81-1.71.52-.66-.48-.17-1.16.39-1.42.59-.28,1.49.08,1.33.9Z"/>
    <path class="cls-73" d="M97.1,62.18c.4.27-.07,1.1-1.21,1.29-.36.06-.89-.22-.74-.7.21-.65,1.41-.94,1.95-.59Z"/>
    <path class="cls-37" d="M120.85,70.3c-.94.53-2.09.56-2.83-.36.91-.26,1.86-.08,2.83.36Z"/>
    <path class="cls-6" d="M120.44,69.83l-1.83-.34c.53-.68,1.31-.67,2.13-.47.34.08.51.3.4.58-.07.19-.37.29-.71.23Z"/>
    <path class="cls-60" d="M100.15,71.66c-.03.11-.06.23-.06.34.04.08-.03.13-.06.08-.88.27-1.35,1.08-2.2,1.74-.48-.75,1.05-1.18,1.87-2.35.04-.06.23-.17.33.04.03.05-.03.07.13.14Z"/>
    <path class="cls-83" d="M93.75,66.32c-.37.05-.89-.45-1.08-.92.45-.23.99-.23,1.39-.05.27.12.34.39.29.53-.05.13-.18.39-.61.44Z"/>
    <path class="cls-98" d="M103.93,70.28l-2.1.71.21-.72c.69.12,1.31-.32,2.01-.48-.03.17-.13.28-.12.48Z"/>
    <path class="cls-36" d="M104.49,74.11l-1.18.3c-.14.03-.4-.07-.63-.19-.07-.04-.16-.18.08-.31l1.73.21Z"/>
    <path class="cls-46" d="M86.11,64.27c-.34-.21-.27-.62-.24-.9.48-.21.59.21.46.45l-.23.45Z"/>
    <path class="cls-88" d="M84.42,68.68c.09-.18.33-.04.32.11,0,.08-.06.24-.18.27-.08.02-.22-.22-.14-.38Z"/>
    <path class="cls-65" d="M81.98,59.53c.02.11.1.17.18.39.07.16-.02.21-.11.2-.25-.02-.25-.15-.26-.23,0-.11.06-.25.18-.36Z"/>
    <path class="cls-114" d="M103.88,62.9c-.25.44-.68-.05-.24-.22.18-.36.58-.03.24.22Z"/>
    <path class="cls-122" d="M55.24,105.46c-.66-.4.8-2.2,1.92-3.09l6.06-4.82c.18-.15.62-.45.5-.78-.05-.15-.26-.24-.19-.47.35-1.17,2.69-2.37,2.89-2.33.34.07.28.46.34.62l.21.54.45.19-.73.93-1.88,2.11,1.96-1.37c.06.86.73.04,1.02.15-.75.56-1.63,1.12-2.45,1.63l-2.47,1.55-2.04,1.56-1.23.68-4.38,2.9Z"/>
    <path class="cls-42" d="M45.94,111.86c-.13.42-.73.22-1.11.19-3.61-.32-7.17,1.69-10.26,3.26l-6.14,3.12-.13-.27c.36-.36.87-.55,1.31-.77l2.19-1.1,4.24-2.21c2.79-1.46,7.49-2.97,9.91-2.21Z"/>
    <path class="cls-96" d="M25.34,117.59l1.66-1.88c-.06.98-.54,1.82-1.66,1.88Z"/>
    <path class="cls-104" d="M24.18,115.23l.88,1.23c-.53.24-.69-.18-.83-.4-.17-.26-.16-.59-.04-.83Z"/>
    <path class="cls-100" d="M47.86,111.44c.01-.49.24-.93.4-1.37.07-.06.14-.07.17-.07-.01.49-.24.93-.4,1.37-.07.06-.14.07-.17.07Z"/>
    <path class="cls-74" d="M53.68,109.02c-.43.67-.38,1.47-.57,2.11-.25.82-1.23.96-1.94.83l-1.45-.26c-.35-1.07.47-1.85,1.45-2.27l1.87-.8c.28.28.46.34.64.4Z"/>
    <path class="cls-95" d="M53.11,111.13c.19-.63.14-1.44.57-2.11.75-.38,1.8-.11,2.46.59l-1.83,1.45c-.39.31-.81.46-1.2.07Z"/>
    <path class="cls-43" d="M23.84,120.31l2.19-1.17c.13,0,.22.07.27.15l-2.32,1.29-.14-.27Z"/>
    <path class="cls-76" d="M143.75,38.57c.43.59,1.05.93,1.81,1-.09.13-.55.36-.29.63-1.14,1.27-2.61,2.21-3.9,3.49l-5.58,5.55-.68.87c-.26.33-.76.7-.85,1.24-.07.4.38.71.48.94-.98,1.86-2.57,1.64-3.51,2-.44-.53-1.17-.51-1.74.07-1.47-.48-2.33-.05-2.64-.44.32-.55.99-.8,1.51-1.21l5.59-4.43,2.39-2.19,4.12-4.23c1.16-1.19,1.92-2.66,3.13-3.71-.03.24.08.3.16.41Z"/>
    <path class="cls-108" d="M147.2,35.27c.69.74,1.66,1.08,2.72,1.16-1.38,2.84-2.75,2.46-4.64,3.76-.27-.27.19-.5.29-.63-.11-.55-.7-.92-1.33-1.15-.15-.48-.47-.19-.48.15-.08-.11-.19-.17-.16-.41l1.23-1.88c.64-.37,1.5-.63,1.92-1.32.19.1.28.36.31.42.02.06.17.04.15-.1Z"/>
    <path class="cls-124" d="M109.99,54.8l.78-1.16,1.7-1.65c.46-.45.96-.76,1.59-1.56l-.85,1.53c1.04-.05,1.62-1.47,1.44-2.17-.06-.17-.55-.52-.74-.55-1.21-.15-1.16,1.75-1.78,1.91-.11-.86.22-1.88,1.01-2.24.48-.47,1.24-.31,1.74.23s.11,2.37-.83,3.12c-.46.37-1.04.35-1.59-.14-.73,1.05-1.61,1.96-2.46,2.67Z"/>
    <path class="cls-29" d="M108.32,44.25l-1.74,2.46c-.07.1-.2.24-.29.29-.07.04-.33-.09-.36-.23-.02-.12.42-.15.38-.27l4.78-6.98c-.16-.15-.2-.47-.12-.5.12-.05.32-.06.79-.12l-3.43,5.34Z"/>
    <path class="cls-20" d="M101.86,46.87l1.28-3.85c.07-.07.15-.07.2-.06l-1.28,3.85c-.07.07-.15.07-.2.06Z"/>
    <path class="cls-124" d="M100.54,61.21l1.57-.9c-.76.65-1.43,1.43-2.36,2.06.14-.51.56-.88.79-1.15Z"/>
    <path class="cls-75" d="M121.33,46.62c.24-.2.29.06.31.13.05.19-.06.25-.23.31s-.32-.22-.07-.44Z"/>
    <path class="cls-124" d="M105.46,72.39c.27-.43,3.58-.86,5.24-2.21.06-1.68,1.99-2.22,3.19-1.55.36.2.41.55.44.75.25,1.68-3.35,1.25-3.52,1.3-1.82.57-3.49,1.73-5.35,1.71ZM113.52,70.11l.37-.67c.04-.07-.04-.31-.19-.39-.87-.5-2.12-.08-2.58.91.64.66,1.7.61,2.4.15Z"/>
    <path class="cls-94" d="M125.67,77.97c-.2-.14-.08-.43.08-.39s.25-.05.42-.07l5.07-.78c.91-.14,1.84-.32,2.76-.3,0,.04.02.14.08.21l-8.4,1.33Z"/>
    <path class="cls-11" d="M113.07,82.57l4.09,1.18c.34.1.66.06.97.18,1.22.46,2,.45,2.74.8-.75.36-1.45-.08-2.13-.26l-2.77-.73c-1.05-.28-2.11-.52-2.89-1.18Z"/>
    <path class="cls-56" d="M131.16,78.57c-.53,0-.43-.55-.03-.31l3.05-.35.09.2-3.11.46Z"/>
    <path class="cls-36" d="M123.38,70.69c.14-.06.46-.47.72-.1-.06.23-.55.21-.72.1Z"/>
    <path class="cls-81" d="M70.18,44.76c1.42,3.65,3.41,6.91,5.57,10.11-2.39-2.68-3.97-5.75-5.52-8.89l-1.17-2.91.21-.09.91,1.78Z"/>
    <path class="cls-5" d="M74.86,58.58l-2.05-1.43-1.7-1.44c-.22-.19-.63-.31-.53-.75l2.91,2.22c1.12.85,2.22,1.62,3.2,2.47.11.08.05.18.04.19-.77-.2-1.26-.85-1.86-1.27Z"/>
    <path class="cls-72" d="M67.9,33.15l-.54-2.48.21-.09.61,2.63c-.08.08-.24.11-.27-.06Z"/>
    <path class="cls-124" d="M82.22,54.61c-.35-.31-.43-1.22-.29-1.69.34.38.53,1.23.29,1.69Z"/>
    <path class="cls-119" d="M69.15,41.89l.17.53c.03.08-.39.27-.4.18l-.06-.51c-.02-.2-.17-.29-.2-.37-.03-.1.11-.28.21-.27.12.02.17.13.27.44Z"/>
    <path class="cls-123" d="M99.4,95.31c-1.88-1.7-3.01-4.11-3.5-6.62,1.03,2.38,2,4.53,3.5,6.62Z"/>
    <path class="cls-110" d="M105.84,92.06c.1.45.21.7.11,1.08-1.83-1.79-3.73-.78-3.02-2.45.37.52.73.51,1.14.47.29.78,1.24,1.36,1.77.9Z"/>
    <path class="cls-85" d="M91.8,90.11c-.1-.88-.14-1.83-.04-2.79l.34-3.23c.11,0,.2-.06.23-.07.06.94-.19,1.9-.22,2.95l-.07,2.85c0,.18-.12.26-.23.28Z"/>
    <path class="cls-123" d="M95.37,86.88c.42.26.52,1.01.29,1.42-.31-.53-.29-.99-.29-1.42Z"/>
    <path class="cls-101" d="M89.13,90.36c.28-.03.37.21.22.39-.07.09.03.28-.31.35-.11.03-.22-.01-.24-.27-.01-.2-.09-.43.32-.48Z"/>
    <path class="cls-23" d="M102.64,98.6c-.45.07-1.04-.17-1.16-.9l1.16.9Z"/>
    <path class="cls-123" d="M95.37,86.88c-.37-.14-.45-.67-.22-1.06.36.42.22.75.22,1.06Z"/>
    <path class="cls-54" d="M75.27,76.07c-1.96.45-3.93.78-5.96.47,1.03-.29,2.08-.04,3.15-.31l.83-.21c.92.03,1.87-.26,2.78-.47l5.6-1.25c.68-.15,1.42-.5,2.14-.12l-3.43.69-5.11,1.18Z"/>
    <path class="cls-53" d="M77.53,73.19l-1.92-.38c-1.25-.25-2.59-.75-3.74-1.29l-1.58-.74c.12-.23.35-.36.54-.23l.53.38,4.26,1.48,4.93.64c-1.03.23-2.05.33-3.01.14Z"/>
    <path class="cls-48" d="M81.08,78.16c-.2-.25-.35-.44-.57-.73.28-.17.7-.52.91-.91.42-.08.86-.32,1.25-.51-.55.76-1.31,1.32-1.59,2.15Z"/>
    <path class="cls-91" d="M80.5,77.43l-.71.44c-.48.3-.81.55-1.22.74l1.34-1.25c.42-.36.93-.73,1.51-.84-.22.39-.64.73-.91.91Z"/>
    <path class="cls-31" d="M78.57,78.61c-.19.58-1.3,1.4-2.11,2.02.48-.91,1.29-1.65,2.11-2.02Z"/>
    <path class="cls-68" d="M67.81,76.32c-.54.16-1.01.18-1.57-.25.54-.16,1.02-.18,1.57.25Z"/>
    <path class="cls-90" d="M77.67,57.21c-.68-.39-1.15-.86-1.34-1.6.68.39,1.16.86,1.34,1.6Z"/>
    <path class="cls-30" d="M75.75,54.87c.13-.01.49.44.36.57-.3.13-.5-.35-.36-.57Z"/>
    <path class="cls-41" d="M63.63,82.24c.29.03.33.31.33.44,0,.27-.21.36-.41.21-.11-.08-.27-.12-.35-.37-.04-.12.05-.32.42-.28Z"/>
    <path class="cls-58" d="M117.33,77.56c-1.47.06-3.02-.19-4.69-.56-.73-.16-1.54-.12-2.09-.67l3.3.58,3.41.46.07.19Z"/>
    <path class="cls-124" d="M105.42,77.23c.21-.28.73-.49,1.34-.38-.35.26-.92.56-1.34.38Z"/>
    <path class="cls-103" d="M98.13,59.39l-.89,1.83c-.1-.02-.2-.05-.32-.14,1.48-1.73.27-2.42.66-3.33.23-.56.56-1.18,1.37-1.29.43-.06.87.21,1.02.49.19.35.23.74.16,1.24-.1.78-1.11,1.28-2.01,1.21ZM98.15,58.82c.57.53,1.32-.02,1.51-.38.25-.47.25-1.37-.46-1.51-.77-.16-1.77,1.23-1.05,1.89Z"/>
    <path class="cls-99" d="M82.67,76.01c-.39.2-.83.44-1.25.51-.05.01-.04-.14-.01-.23.77-.41,1.4-.85,2.16-1.06.13,0,.21.06.25.12-.31.3-.72.44-1.14.66Z"/>
    <path class="cls-93" d="M112.47,51.98c-.12-.27-.18-.43-.36-.65-.08.27-.17.3-.28.37-.23.12-.34-.26-.2-.26.47.04.28-.29.19-.34s.27-.15.31.05c.63-.16.58-2.06,1.78-1.91.19.02.68.38.74.55.18.7-.4,2.12-1.44,2.17l.85-1.53c-.63.8-1.13,1.11-1.59,1.56Z"/>
    <path class="cls-67" d="M95.22,68.52c.34-.64,1-1.13,1.57-1.66.07.13.34.22.51.28-.53,1.3-1.46,2.47-2.38,3.37-.96-.5-.38-.72.3-1.99Z"/>
    <path class="cls-118" d="M97.44,66.6c-.71-.24-.62-1.06-.52-1.44.12-.45.58-.97,1.19-.84.55.12.6.87.55,1.22-.06.46-.6,1.27-1.22,1.06Z"/>
    <path class="cls-4" d="M145.56,39.56c-.76-.07-1.39-.41-1.81-1,.01-.35.33-.63.48-.15.63.23,1.22.6,1.33,1.15Z"/>
    <path class="cls-13" d="M113.52,70.11c-.7.45-1.76.51-2.4-.15.46-.98,1.7-1.4,2.58-.91.14.08.23.33.19.39l-.37.67Z"/>
    <path class="cls-9" d="M98.15,58.82c-.72-.66.28-2.05,1.05-1.89.71.15.71,1.05.46,1.51-.19.36-.94.91-1.51.38Z"/>
  </g>
</svg>